<svg width="18" height="20" viewBox="0 0 18 20" fill="none" xmlns="http://www.w3.org/2000/svg">
<path d="M16.71 7.2899L9.71 0.289896C9.6149 0.198856 9.50275 0.127491 9.38 0.0798963C9.13654 -0.0201217 8.86346 -0.0201217 8.62 0.0798963C8.49725 0.127491 8.38511 0.198856 8.29 0.289896L1.29 7.2899C1.19676 7.38313 1.1228 7.49382 1.07234 7.61565C1.02188 7.73747 0.995911 7.86804 0.995911 7.9999C0.995911 8.2662 1.1017 8.52159 1.29 8.7099C1.47831 8.8982 1.7337 9.00399 2 9.00399C2.2663 9.00399 2.5217 8.8982 2.71 8.7099L8 3.4099V18.9999C8 19.2651 8.10536 19.5195 8.2929 19.707C8.48043 19.8945 8.73479 19.9999 9 19.9999C9.26522 19.9999 9.51957 19.8945 9.70711 19.707C9.89465 19.5195 10 19.2651 10 18.9999V3.4099L15.29 8.7099C15.383 8.80362 15.4936 8.87802 15.6154 8.92879C15.7373 8.97956 15.868 9.00569 16 9.00569C16.132 9.00569 16.2627 8.97956 16.3846 8.92879C16.5064 8.87802 16.617 8.80362 16.71 8.7099C16.8037 8.61693 16.8781 8.50633 16.9289 8.38447C16.9797 8.26261 17.0058 8.13191 17.0058 7.9999C17.0058 7.86788 16.9797 7.73718 16.9289 7.61532C16.8781 7.49346 16.8037 7.38286 16.71 7.2899Z" fill="#c92626" transform="translate(18 20) rotate(180)"/>
</svg>
