<svg width="24" height="24" viewBox="0 0 24 24" fill="none" xmlns="http://www.w3.org/2000/svg">
<path fill-rule="evenodd" clip-rule="evenodd" d="M4.47998 1.6001H4.39998C4.03358 1.6001 3.71838 1.6001 3.43998 1.6657C3.00899 1.76868 2.61494 1.98897 2.30146 2.30216C1.98799 2.61535 1.76735 3.00921 1.66398 3.4401C1.59998 3.7185 1.59998 4.0321 1.59998 4.4001V8.4001C1.59998 8.7665 1.59998 9.0817 1.66558 9.3601C1.76856 9.79108 1.98885 10.1851 2.30204 10.4986C2.61523 10.8121 3.00909 11.0327 3.43998 11.1361C3.71838 11.2001 4.03198 11.2001 4.39998 11.2001H8.39998C8.76638 11.2001 9.08157 11.2001 9.35997 11.1345C9.79096 11.0315 10.185 10.8112 10.4985 10.498C10.812 10.1848 11.0326 9.79099 11.136 9.3601C11.2 9.0817 11.2 8.7681 11.2 8.4001V4.4001C11.2 4.0337 11.2 3.7185 11.1344 3.4401C11.0314 3.00912 10.8111 2.61506 10.4979 2.30159C10.1847 1.98812 9.79086 1.76747 9.35997 1.6641C9.08157 1.6001 8.76798 1.6001 8.39998 1.6001H4.47998ZM3.81278 3.2225C3.88158 3.2065 3.98878 3.2001 4.47998 3.2001H8.31997C8.81277 3.2001 8.91838 3.2049 8.98718 3.2225C9.1309 3.25687 9.2623 3.33038 9.3668 3.43487C9.47129 3.53937 9.5448 3.67077 9.57917 3.8145C9.59518 3.8817 9.59998 3.9873 9.59998 4.4801V8.3201C9.59998 8.8129 9.59518 8.9185 9.57758 8.9873C9.5432 9.13103 9.46969 9.26242 9.3652 9.36692C9.2607 9.47142 9.1293 9.54493 8.98558 9.5793C8.91998 9.5937 8.81437 9.6001 8.31997 9.6001H4.47998C3.98718 9.6001 3.88158 9.5953 3.81278 9.5777C3.66905 9.54333 3.53765 9.46982 3.43315 9.36532C3.32866 9.26082 3.25515 9.12943 3.22078 8.9857C3.20638 8.9201 3.19998 8.8145 3.19998 8.3201V4.4801C3.19998 3.9873 3.20478 3.8817 3.22238 3.8129C3.25675 3.66917 3.33026 3.53777 3.43475 3.43327C3.53925 3.32878 3.67065 3.25527 3.81438 3.2209L3.81278 3.2225ZM15.68 1.6001H15.6C15.2336 1.6001 14.9184 1.6001 14.64 1.6657C14.209 1.76868 13.8149 1.98897 13.5015 2.30216C13.188 2.61535 12.9673 3.00921 12.864 3.4401C12.8 3.7185 12.8 4.0321 12.8 4.4001V8.4001C12.8 8.7665 12.8 9.0817 12.8656 9.3601C12.9686 9.79108 13.1888 10.1851 13.502 10.4986C13.8152 10.8121 14.2091 11.0327 14.64 11.1361C14.9184 11.2001 15.232 11.2001 15.6 11.2001H19.6C19.9664 11.2001 20.2816 11.2001 20.56 11.1345C20.991 11.0315 21.385 10.8112 21.6985 10.498C22.012 10.1848 22.2326 9.79099 22.336 9.3601C22.4 9.0817 22.4 8.7681 22.4 8.4001V4.4001C22.4 4.0337 22.4 3.7185 22.3344 3.4401C22.2314 3.00912 22.0111 2.61506 21.6979 2.30159C21.3847 1.98812 20.9909 1.76747 20.56 1.6641C20.2816 1.6001 19.968 1.6001 19.6 1.6001H15.68ZM15.0128 3.2225C15.0816 3.2065 15.1888 3.2001 15.68 3.2001H19.52C20.0128 3.2001 20.1184 3.2049 20.1872 3.2225C20.3309 3.25687 20.4623 3.33038 20.5668 3.43487C20.6713 3.53937 20.7448 3.67077 20.7792 3.8145C20.7952 3.8817 20.8 3.9873 20.8 4.4801V8.3201C20.8 8.8129 20.7936 8.9185 20.7776 8.9873C20.7432 9.13103 20.6697 9.26242 20.5652 9.36692C20.4607 9.47142 20.3293 9.54493 20.1856 9.5793C20.1184 9.5953 20.0128 9.6001 19.52 9.6001H15.68C15.1872 9.6001 15.0816 9.5953 15.0128 9.5777C14.869 9.54333 14.7376 9.46982 14.6332 9.36532C14.5287 9.26082 14.4551 9.12943 14.4208 8.9857C14.4064 8.9201 14.4 8.8145 14.4 8.3201V4.4801C14.4 3.9873 14.4048 3.8817 14.4224 3.8129C14.4567 3.66917 14.5303 3.53777 14.6348 3.43327C14.7392 3.32878 14.8706 3.25527 15.0144 3.2209L15.0128 3.2225ZM4.39998 12.8001H8.39998C8.76638 12.8001 9.08157 12.8001 9.35997 12.8657C9.79096 12.9687 10.185 13.189 10.4985 13.5022C10.812 13.8153 11.0326 14.2092 11.136 14.6401C11.2 14.9185 11.2 15.2321 11.2 15.6001V19.6001C11.2 19.9665 11.2 20.2817 11.1344 20.5601C11.0314 20.9911 10.8111 21.3851 10.4979 21.6986C10.1847 22.0121 9.79086 22.2327 9.35997 22.3361C9.08157 22.4001 8.76798 22.4001 8.39998 22.4001H4.39998C4.03358 22.4001 3.71838 22.4001 3.43998 22.3345C3.00899 22.2315 2.61494 22.0112 2.30146 21.698C1.98799 21.3848 1.76735 20.991 1.66398 20.5601C1.59998 20.2817 1.59998 19.9681 1.59998 19.6001V15.6001C1.59998 15.2337 1.59998 14.9185 1.66558 14.6401C1.76856 14.2091 1.98885 13.8151 2.30204 13.5016C2.61523 13.1881 3.00909 12.9675 3.43998 12.8641C3.71838 12.8001 4.03198 12.8001 4.39998 12.8001ZM4.47998 14.4001C3.98718 14.4001 3.88158 14.4049 3.81278 14.4225C3.66905 14.4569 3.53765 14.5304 3.43315 14.6349C3.32866 14.7394 3.25515 14.8708 3.22078 15.0145C3.20638 15.0801 3.19998 15.1857 3.19998 15.6801V19.5201C3.19998 20.0129 3.20478 20.1185 3.22238 20.1873C3.25675 20.331 3.33026 20.4624 3.43475 20.5669C3.53925 20.6714 3.67065 20.7449 3.81438 20.7793C3.88158 20.7953 3.98718 20.8001 4.47998 20.8001H8.31997C8.81277 20.8001 8.91838 20.7937 8.98718 20.7777C9.1309 20.7433 9.2623 20.6698 9.3668 20.5653C9.47129 20.4608 9.5448 20.3294 9.57917 20.1857C9.59518 20.1185 9.59998 20.0129 9.59998 19.5201V15.6801C9.59998 15.1873 9.59518 15.0817 9.57758 15.0129C9.5432 14.8692 9.46969 14.7378 9.3652 14.6333C9.2607 14.5288 9.1293 14.4553 8.98558 14.4209C8.91998 14.4065 8.81437 14.4001 8.31997 14.4001H4.47998ZM15.68 12.8001H15.6C15.2336 12.8001 14.9184 12.8001 14.64 12.8657C14.209 12.9687 13.8149 13.189 13.5015 13.5022C13.188 13.8153 12.9673 14.2092 12.864 14.6401C12.8 14.9185 12.8 15.2321 12.8 15.6001V19.6001C12.8 19.9665 12.8 20.2817 12.8656 20.5601C12.9686 20.9911 13.1888 21.3851 13.502 21.6986C13.8152 22.0121 14.2091 22.2327 14.64 22.3361C14.9184 22.4017 15.2336 22.4017 15.6 22.4017H19.6C19.9664 22.4017 20.2816 22.4017 20.56 22.3361C20.9907 22.2329 21.3844 22.0124 21.6976 21.6993C22.0107 21.3861 22.2311 20.9924 22.3344 20.5617C22.4 20.2833 22.4 19.9681 22.4 19.6017V15.6001C22.4 15.2337 22.4 14.9185 22.3344 14.6401C22.2314 14.2091 22.0111 13.8151 21.6979 13.5016C21.3847 13.1881 20.9909 12.9675 20.56 12.8641C20.2816 12.8001 19.968 12.8001 19.6 12.8001H15.68ZM15.0128 14.4225C15.0816 14.4065 15.1888 14.4001 15.68 14.4001H19.52C20.0128 14.4001 20.1184 14.4049 20.1872 14.4225C20.3309 14.4569 20.4623 14.5304 20.5668 14.6349C20.6713 14.7394 20.7448 14.8708 20.7792 15.0145C20.7952 15.0817 20.8 15.1873 20.8 15.6801V19.5201C20.8 20.0129 20.7936 20.1185 20.7776 20.1873C20.7432 20.331 20.6697 20.4624 20.5652 20.5669C20.4607 20.6714 20.3293 20.7449 20.1856 20.7793C20.1184 20.7953 20.0128 20.8001 19.52 20.8001H15.68C15.1872 20.8001 15.0816 20.7937 15.0128 20.7777C14.869 20.7433 14.7376 20.6698 14.6332 20.5653C14.5287 20.4608 14.4551 20.3294 14.4208 20.1857C14.4064 20.1201 14.4 20.0145 14.4 19.5201V15.6801C14.4 15.1873 14.4048 15.0817 14.4224 15.0129C14.4567 14.8692 14.5303 14.7378 14.6348 14.6333C14.7392 14.5288 14.8706 14.4553 15.0144 14.4209L15.0128 14.4225Z" fill="#21334F"/>
</svg>
