<svg width="146" height="34" viewBox="0 0 146 34" fill="none" xmlns="http://www.w3.org/2000/svg">
<rect x="78" y="3" width="63" height="31" rx="2" fill="#14A800"/>
<path d="M13.0753 12.2344C12.9825 11.366 12.5914 10.6899 11.902 10.206C11.2192 9.72206 10.331 9.48011 9.23722 9.48011C8.46828 9.48011 7.80871 9.59612 7.25852 9.82812C6.70833 10.0601 6.28741 10.375 5.99574 10.7727C5.70407 11.1705 5.55492 11.6245 5.5483 12.1349C5.5483 12.5592 5.64441 12.9271 5.83665 13.2386C6.03551 13.5502 6.30398 13.8153 6.64205 14.0341C6.98011 14.2462 7.35464 14.4252 7.76562 14.571C8.17661 14.7169 8.59091 14.8395 9.00852 14.9389L10.9176 15.4162C11.6866 15.5952 12.4257 15.8371 13.1349 16.142C13.8509 16.447 14.4905 16.8314 15.054 17.2955C15.6241 17.7595 16.0748 18.3196 16.4062 18.9759C16.7377 19.6321 16.9034 20.401 16.9034 21.2827C16.9034 22.4759 16.5985 23.5265 15.9886 24.4347C15.3788 25.3362 14.4972 26.0421 13.3438 26.5526C12.197 27.0563 10.8082 27.3082 9.17756 27.3082C7.59328 27.3082 6.2178 27.063 5.05114 26.5724C3.8911 26.0819 2.98295 25.366 2.3267 24.4247C1.67708 23.4834 1.32576 22.3366 1.27273 20.9844H4.90199C4.95502 21.6937 5.17377 22.2836 5.55824 22.7543C5.94271 23.2249 6.44318 23.5762 7.05966 23.8082C7.68277 24.0402 8.37879 24.1562 9.14773 24.1562C9.94981 24.1562 10.6525 24.0369 11.2557 23.7983C11.8655 23.553 12.3428 23.215 12.6875 22.7841C13.0322 22.3466 13.2079 21.8362 13.2145 21.2528C13.2079 20.7225 13.0521 20.285 12.7472 19.9403C12.4422 19.589 12.0147 19.2973 11.4645 19.0653C10.9209 18.8267 10.2846 18.6146 9.5554 18.429L7.23864 17.8324C5.56155 17.4015 4.2358 16.7486 3.26136 15.8736C2.29356 14.992 1.80966 13.822 1.80966 12.3636C1.80966 11.1638 2.13447 10.1132 2.78409 9.21165C3.44034 8.31013 4.33191 7.6108 5.45881 7.11364C6.5857 6.60985 7.86174 6.35795 9.28693 6.35795C10.732 6.35795 11.9981 6.60985 13.0852 7.11364C14.179 7.6108 15.0374 8.3035 15.6605 9.19176C16.2836 10.0734 16.6051 11.0876 16.625 12.2344H13.0753ZM26.695 27.2983C25.1703 27.2983 23.8612 26.9635 22.7674 26.294C21.6803 25.6245 20.8417 24.6998 20.2518 23.5199C19.6684 22.3333 19.3768 20.9678 19.3768 19.4233C19.3768 17.8722 19.6751 16.5033 20.2717 15.3168C20.8683 14.1236 21.7101 13.1955 22.7972 12.5327C23.891 11.8632 25.1836 11.5284 26.6751 11.5284C27.9147 11.5284 29.0117 11.7571 29.9663 12.2145C30.9274 12.6652 31.6931 13.3049 32.2631 14.1335C32.8332 14.9555 33.158 15.9167 33.2376 17.017H29.7972C29.658 16.2812 29.3266 15.6681 28.8029 15.1776C28.2859 14.6804 27.5932 14.4318 26.7248 14.4318C25.989 14.4318 25.3427 14.6307 24.7859 15.0284C24.229 15.4195 23.7949 15.983 23.4833 16.7188C23.1784 17.4545 23.0259 18.3362 23.0259 19.3636C23.0259 20.4044 23.1784 21.2992 23.4833 22.0483C23.7882 22.7907 24.2158 23.3641 24.766 23.7685C25.3228 24.1662 25.9757 24.3651 26.7248 24.3651C27.2551 24.3651 27.729 24.2656 28.1467 24.0668C28.5709 23.8613 28.9255 23.5663 29.2106 23.1818C29.4956 22.7973 29.6912 22.33 29.7972 21.7798H33.2376C33.1514 22.8603 32.8332 23.8182 32.283 24.6534C31.7328 25.482 30.9838 26.1316 30.0359 26.6023C29.088 27.0663 27.9743 27.2983 26.695 27.2983ZM42.8551 27.2983C41.3636 27.2983 40.071 26.9702 38.9773 26.3139C37.8835 25.6577 37.035 24.7396 36.4318 23.5597C35.8352 22.3797 35.5369 21.0009 35.5369 19.4233C35.5369 17.8456 35.8352 16.4635 36.4318 15.277C37.035 14.0904 37.8835 13.169 38.9773 12.5128C40.071 11.8565 41.3636 11.5284 42.8551 11.5284C44.3466 11.5284 45.6392 11.8565 46.733 12.5128C47.8267 13.169 48.6719 14.0904 49.2685 15.277C49.8717 16.4635 50.1733 17.8456 50.1733 19.4233C50.1733 21.0009 49.8717 22.3797 49.2685 23.5597C48.6719 24.7396 47.8267 25.6577 46.733 26.3139C45.6392 26.9702 44.3466 27.2983 42.8551 27.2983ZM42.875 24.4148C43.6837 24.4148 44.3598 24.1927 44.9034 23.7486C45.447 23.2978 45.8513 22.6946 46.1165 21.9389C46.3883 21.1832 46.5241 20.3414 46.5241 19.4134C46.5241 18.4787 46.3883 17.6335 46.1165 16.8778C45.8513 16.1155 45.447 15.509 44.9034 15.0582C44.3598 14.6075 43.6837 14.3821 42.875 14.3821C42.0464 14.3821 41.357 14.6075 40.8068 15.0582C40.2633 15.509 39.8556 16.1155 39.5838 16.8778C39.3187 17.6335 39.1861 18.4787 39.1861 19.4134C39.1861 20.3414 39.3187 21.1832 39.5838 21.9389C39.8556 22.6946 40.2633 23.2978 40.8068 23.7486C41.357 24.1927 42.0464 24.4148 42.875 24.4148ZM53.2283 27V11.7273H56.7184V14.2727H56.8775C57.1559 13.3911 57.6332 12.7116 58.3093 12.2344C58.9921 11.7505 59.771 11.5085 60.646 11.5085C60.8448 11.5085 61.0669 11.5185 61.3121 11.5384C61.564 11.5516 61.7728 11.5748 61.9386 11.608V14.919C61.7861 14.866 61.5442 14.8196 61.2127 14.7798C60.8879 14.7334 60.573 14.7102 60.2681 14.7102C59.6119 14.7102 59.0219 14.8527 58.4982 15.1378C57.9812 15.4162 57.5735 15.804 57.2752 16.3011C56.9769 16.7983 56.8278 17.3717 56.8278 18.0213V27H53.2283ZM70.4624 27.2983C68.9311 27.2983 67.6087 26.9801 66.495 26.3438C65.388 25.7008 64.5362 24.7926 63.9396 23.6193C63.343 22.4394 63.0447 21.0507 63.0447 19.4531C63.0447 17.8821 63.343 16.5033 63.9396 15.3168C64.5429 14.1236 65.3847 13.1955 66.4652 12.5327C67.5457 11.8632 68.8151 11.5284 70.2734 11.5284C71.2147 11.5284 72.103 11.6809 72.9382 11.9858C73.7801 12.2841 74.5225 12.7481 75.1655 13.3778C75.8151 14.0076 76.3255 14.8097 76.6967 15.7841C77.0679 16.7519 77.2536 17.9053 77.2536 19.2443V20.348H64.7351V17.9219H73.8033C73.7966 17.2325 73.6475 16.6193 73.3558 16.0824C73.0642 15.5388 72.6565 15.1113 72.1328 14.7997C71.6158 14.4882 71.0125 14.3324 70.3232 14.3324C69.5874 14.3324 68.9411 14.5114 68.3842 14.8693C67.8274 15.2206 67.3932 15.6847 67.0817 16.2614C66.7768 16.8314 66.621 17.4579 66.6143 18.1406V20.2585C66.6143 21.1468 66.7768 21.9091 67.1016 22.5455C67.4264 23.1752 67.8804 23.6591 68.4638 23.9972C69.0471 24.3286 69.7299 24.4943 70.5121 24.4943C71.0357 24.4943 71.5097 24.4214 71.9339 24.2756C72.3582 24.1231 72.7261 23.901 73.0376 23.6094C73.3492 23.3177 73.5845 22.9564 73.7436 22.5256L77.1044 22.9034C76.8923 23.7917 76.4879 24.5672 75.8913 25.2301C75.3014 25.8864 74.5457 26.3968 73.6243 26.7614C72.7029 27.1193 71.6489 27.2983 70.4624 27.2983Z" fill="#21334F"/>
<path d="M86.9606 27.2983C85.436 27.2983 84.1268 26.9635 83.033 26.294C81.9459 25.6245 81.1074 24.6998 80.5174 23.5199C79.9341 22.3333 79.6424 20.9678 79.6424 19.4233C79.6424 17.8722 79.9407 16.5033 80.5373 15.3168C81.1339 14.1236 81.9757 13.1955 83.0629 12.5327C84.1566 11.8632 85.4492 11.5284 86.9407 11.5284C88.1803 11.5284 89.2773 11.7571 90.2319 12.2145C91.1931 12.6652 91.9587 13.3049 92.5288 14.1335C93.0988 14.9555 93.4237 15.9167 93.5032 17.017H90.0629C89.9237 16.2812 89.5922 15.6681 89.0685 15.1776C88.5515 14.6804 87.8588 14.4318 86.9904 14.4318C86.2546 14.4318 85.6083 14.6307 85.0515 15.0284C84.4947 15.4195 84.0605 15.983 83.7489 16.7188C83.444 17.4545 83.2915 18.3362 83.2915 19.3636C83.2915 20.4044 83.444 21.2992 83.7489 22.0483C84.0539 22.7907 84.4814 23.3641 85.0316 23.7685C85.5884 24.1662 86.2414 24.3651 86.9904 24.3651C87.5207 24.3651 87.9947 24.2656 88.4123 24.0668C88.8365 23.8613 89.1912 23.5663 89.4762 23.1818C89.7612 22.7973 89.9568 22.33 90.0629 21.7798H93.5032C93.417 22.8603 93.0988 23.8182 92.5487 24.6534C91.9985 25.482 91.2494 26.1316 90.3015 26.6023C89.3536 27.0663 88.2399 27.2983 86.9606 27.2983ZM100.854 27.3082C99.8859 27.3082 99.0142 27.1359 98.2386 26.7912C97.4697 26.4399 96.8598 25.9228 96.4091 25.2401C95.965 24.5573 95.7429 23.7154 95.7429 22.7145C95.7429 21.8527 95.902 21.1402 96.2202 20.5767C96.5384 20.0133 96.9725 19.5625 97.5227 19.2244C98.0729 18.8864 98.6927 18.6312 99.3821 18.4588C100.078 18.2798 100.797 18.1506 101.54 18.071C102.435 17.9782 103.161 17.8954 103.717 17.8224C104.274 17.7429 104.679 17.6236 104.93 17.4645C105.189 17.2988 105.318 17.0436 105.318 16.6989V16.6392C105.318 15.8902 105.096 15.3101 104.652 14.8991C104.208 14.4882 103.568 14.2827 102.733 14.2827C101.851 14.2827 101.152 14.4749 100.635 14.8594C100.125 15.2438 99.7798 15.6979 99.6009 16.2216L96.2401 15.7443C96.5052 14.8163 96.9427 14.0407 97.5526 13.4176C98.1624 12.7879 98.9081 12.3172 99.7898 12.0057C100.671 11.6875 101.646 11.5284 102.713 11.5284C103.449 11.5284 104.181 11.6146 104.911 11.7869C105.64 11.9593 106.306 12.2443 106.909 12.642C107.512 13.0331 107.996 13.5668 108.361 14.2429C108.732 14.919 108.918 15.7642 108.918 16.7784V27H105.457V24.902H105.338C105.119 25.3262 104.811 25.724 104.413 26.0952C104.022 26.4598 103.528 26.7547 102.932 26.9801C102.342 27.1989 101.649 27.3082 100.854 27.3082ZM101.788 24.6634C102.511 24.6634 103.137 24.5208 103.668 24.2358C104.198 23.9441 104.606 23.5597 104.891 23.0824C105.182 22.6051 105.328 22.0848 105.328 21.5213V19.7216C105.215 19.8144 105.023 19.9006 104.751 19.9801C104.486 20.0597 104.188 20.1293 103.857 20.1889C103.525 20.2486 103.197 20.3016 102.872 20.348C102.547 20.3944 102.266 20.4342 102.027 20.4673C101.49 20.5402 101.009 20.6596 100.585 20.8253C100.161 20.991 99.8262 21.223 99.581 21.5213C99.3357 21.813 99.2131 22.1908 99.2131 22.6548C99.2131 23.3177 99.455 23.8182 99.9389 24.1562C100.423 24.4943 101.039 24.6634 101.788 24.6634ZM112.537 27V11.7273H116.027V14.2727H116.186C116.464 13.3911 116.942 12.7116 117.618 12.2344C118.301 11.7505 119.08 11.5085 119.955 11.5085C120.153 11.5085 120.375 11.5185 120.621 11.5384C120.873 11.5516 121.081 11.5748 121.247 11.608V14.919C121.095 14.866 120.853 14.8196 120.521 14.7798C120.196 14.7334 119.882 14.7102 119.577 14.7102C118.92 14.7102 118.33 14.8527 117.807 15.1378C117.29 15.4162 116.882 15.804 116.584 16.3011C116.286 16.7983 116.136 17.3717 116.136 18.0213V27H112.537ZM128.677 27.2685C127.477 27.2685 126.404 26.9602 125.456 26.3438C124.508 25.7273 123.759 24.8324 123.208 23.6591C122.658 22.4858 122.383 21.0606 122.383 19.3835C122.383 17.6866 122.662 16.2547 123.218 15.0881C123.782 13.9148 124.541 13.0298 125.495 12.4332C126.45 11.83 127.514 11.5284 128.687 11.5284C129.582 11.5284 130.318 11.6809 130.895 11.9858C131.471 12.2841 131.929 12.6454 132.267 13.0696C132.605 13.4872 132.867 13.8816 133.052 14.2528H133.201V6.63636H136.811V27H133.271V24.5938H133.052C132.867 24.965 132.598 25.3594 132.247 25.777C131.895 26.188 131.431 26.5393 130.855 26.831C130.278 27.1226 129.552 27.2685 128.677 27.2685ZM129.681 24.3153C130.444 24.3153 131.093 24.1098 131.63 23.6989C132.167 23.2812 132.575 22.7012 132.853 21.9588C133.132 21.2164 133.271 20.3513 133.271 19.3636C133.271 18.3759 133.132 17.5175 132.853 16.7884C132.582 16.0592 132.177 15.4924 131.64 15.0881C131.11 14.6837 130.457 14.4815 129.681 14.4815C128.879 14.4815 128.21 14.6903 127.673 15.108C127.136 15.5256 126.732 16.1023 126.46 16.8381C126.188 17.5739 126.052 18.4157 126.052 19.3636C126.052 20.3182 126.188 21.17 126.46 21.919C126.738 22.6615 127.146 23.2481 127.683 23.679C128.226 24.1032 128.893 24.3153 129.681 24.3153Z" fill="white"/>
</svg>
