<svg width="24" height="24" viewBox="0 0 24 24" fill="none" xmlns="http://www.w3.org/2000/svg">
<g clip-path="url(#clip0_4_50)">
<path d="M19.4438 11.7317C19.9069 10.9667 20.4375 9.92236 20.4375 8.64924C20.4375 5.21611 17.7469 2.42236 14.4375 2.42236C11.1281 2.42236 8.43752 5.21424 8.43752 8.64924C8.43447 9.9304 8.82739 11.1812 9.56252 12.2305C9.71064 12.4424 9.86252 12.6524 10.0125 12.8605C10.7625 13.8955 11.4619 14.8799 11.7675 16.1117C11.6681 16.117 11.5748 16.1615 11.5081 16.2355C11.4415 16.3095 11.407 16.407 11.4122 16.5064C11.4174 16.6059 11.4619 16.6992 11.536 16.7658C11.61 16.8325 11.7074 16.867 11.8069 16.8617H11.9569C12.0071 17.2153 12.0359 17.5716 12.0431 17.9286C12.0465 18.0258 12.0876 18.1178 12.1575 18.1853C12.2275 18.2528 12.3209 18.2905 12.4181 18.2905H16.4306C16.5276 18.2906 16.6207 18.2531 16.6906 18.186C16.7606 18.1189 16.8018 18.0273 16.8056 17.9305C16.8163 17.5722 16.852 17.2151 16.9125 16.8617H17.0625C17.162 16.8617 17.2574 16.8222 17.3277 16.7519C17.398 16.6816 17.4375 16.5862 17.4375 16.4867C17.4375 16.3873 17.398 16.2919 17.3277 16.2216C17.2574 16.1512 17.162 16.1117 17.0625 16.1117C17.3325 14.9099 18.0863 13.7867 18.8194 12.6974C19.0331 12.3636 19.2413 12.0542 19.4438 11.7317ZM16.08 17.5442H12.7819C12.765 17.2611 12.7444 17.0417 12.72 16.8655H16.1569C16.125 17.0361 16.1006 17.2499 16.0819 17.5386L16.08 17.5442ZM18.1875 12.2755C17.3831 13.4717 16.5525 14.713 16.2863 16.1099H12.5363C12.2194 14.6549 11.4113 13.5242 10.6181 12.4311C10.47 12.2249 10.3219 12.0186 10.1738 11.8086C9.52673 10.8826 9.18221 9.77893 9.18752 8.64924C9.18752 5.62486 11.5425 3.17236 14.4375 3.17236C17.3325 3.17236 19.6875 5.62486 19.6875 8.64924C19.6875 9.49861 19.4138 10.3367 18.8063 11.3399C18.6131 11.6455 18.4069 11.9511 18.1875 12.2755ZM13.0313 18.9224C12.9318 18.9224 12.8364 18.9619 12.7661 19.0322C12.6958 19.1025 12.6563 19.1979 12.6563 19.2974C12.6563 19.3968 12.6958 19.4922 12.7661 19.5625C12.8364 19.6329 12.9318 19.6724 13.0313 19.6724H15.8438C15.9432 19.6724 16.0386 19.6329 16.1089 19.5625C16.1793 19.4922 16.2188 19.3968 16.2188 19.2974C16.2188 19.1979 16.1793 19.1025 16.1089 19.0322C16.0386 18.9619 15.9432 18.9224 15.8438 18.9224H13.0313Z" fill="#21334F"/>
<path d="M14.4375 0C9.56248 0 5.62497 4.15875 5.43747 9.465C5.43088 9.62789 5.394 9.78812 5.32872 9.9375L3.77997 12.6075C3.62666 12.8594 3.55101 13.1509 3.56247 13.4456C3.59011 13.8422 3.76776 14.2134 4.05928 14.4836C4.3508 14.7539 4.73432 14.903 5.13185 14.9006C5.2658 14.8986 5.39509 14.9498 5.49138 15.0429C5.58768 15.1361 5.64313 15.2636 5.6456 15.3975V17.1488C5.65451 18.0359 6.01474 18.8834 6.64736 19.5055C7.27998 20.1276 8.13339 20.4735 9.0206 20.4675H9.9131C11.3044 20.5819 12.0075 21.1556 12.0075 22.1719C12.0075 22.2713 12.047 22.3667 12.1173 22.437C12.1876 22.5074 12.283 22.5469 12.3825 22.5469C12.4819 22.5469 12.5773 22.5074 12.6476 22.437C12.718 22.3667 12.7575 22.2713 12.7575 22.1719C12.7575 20.7544 11.7375 19.86 9.9581 19.7175H9.0206C8.33229 19.7235 7.66964 19.4566 7.17767 18.9752C6.68571 18.4937 6.4045 17.837 6.3956 17.1488V15.3956C6.39312 15.0628 6.25864 14.7445 6.0217 14.5107C5.78475 14.2769 5.46471 14.1468 5.13185 14.1488C4.92522 14.1517 4.72523 14.0758 4.57263 13.9365C4.42004 13.7971 4.32633 13.6048 4.3106 13.3988C4.30798 13.2519 4.34768 13.1074 4.42497 12.9825L5.98685 10.3125L6.0056 10.2787C6.11855 10.0335 6.18225 9.76852 6.1931 9.49875C6.35435 4.59 9.97685 0.75 14.4375 0.75C14.5369 0.75 14.6323 0.710491 14.7026 0.640165C14.773 0.569839 14.8125 0.474456 14.8125 0.375C14.8125 0.275544 14.773 0.180161 14.7026 0.109835C14.6323 0.0395088 14.5369 0 14.4375 0V0Z" fill="#21334F"/>
<path d="M18.045 7.51312C17.9738 7.27817 17.8796 7.05082 17.7637 6.83438C17.9006 6.69229 17.9759 6.50204 17.9734 6.30481C17.971 6.10758 17.8909 5.91925 17.7506 5.78062L17.265 5.295C17.1264 5.15469 16.938 5.07463 16.7408 5.07218C16.5436 5.06972 16.3533 5.14506 16.2112 5.28188C15.9948 5.16603 15.7674 5.07183 15.5325 5.00063C15.5286 4.80432 15.4478 4.61739 15.3076 4.47997C15.1674 4.34254 14.9788 4.26559 14.7825 4.26563H14.0944C13.898 4.26559 13.7095 4.34254 13.5693 4.47997C13.429 4.61739 13.3483 4.80432 13.3444 5.00063C13.1094 5.07183 12.8821 5.16603 12.6656 5.28188C12.5211 5.14984 12.3318 5.07773 12.1361 5.08017C11.9404 5.0826 11.753 5.15941 11.6119 5.295L11.1262 5.78062C10.9859 5.91925 10.9059 6.10758 10.9034 6.30481C10.901 6.50204 10.9763 6.69229 11.1131 6.83438C10.9973 7.05082 10.9031 7.27817 10.8319 7.51312C10.6356 7.51705 10.4486 7.5978 10.3112 7.73803C10.1738 7.87826 10.0968 8.06678 10.0969 8.26312V8.94938C10.0968 9.14572 10.1738 9.33424 10.3112 9.47447C10.4486 9.6147 10.6356 9.69545 10.8319 9.69938C10.9031 9.93432 10.9973 10.1617 11.1131 10.3781C10.9741 10.52 10.897 10.7112 10.8988 10.9098C10.9005 11.1084 10.981 11.2981 11.1225 11.4375L11.6081 11.9231C11.7467 12.0634 11.9351 12.1435 12.1323 12.1459C12.3295 12.1484 12.5198 12.0731 12.6619 11.9362C12.8783 12.0521 13.1057 12.1463 13.3406 12.2175C13.3445 12.4138 13.4253 12.6007 13.5655 12.7382C13.7057 12.8756 13.8943 12.9525 14.0906 12.9525H14.7769C14.9732 12.9525 15.1617 12.8756 15.302 12.7382C15.4422 12.6007 15.5229 12.4138 15.5269 12.2175C15.7618 12.1463 15.9892 12.0521 16.2056 11.9362C16.3477 12.0731 16.538 12.1484 16.7352 12.1459C16.9324 12.1435 17.1207 12.0634 17.2594 11.9231L17.7506 11.4375C17.8909 11.2989 17.971 11.1105 17.9734 10.9133C17.9759 10.7161 17.9006 10.5258 17.7637 10.3837C17.8796 10.1673 17.9738 9.93995 18.045 9.705C18.2413 9.70107 18.4282 9.62033 18.5656 9.4801C18.7031 9.33987 18.78 9.15134 18.78 8.955V8.26688C18.781 8.06989 18.7045 7.8804 18.567 7.73937C18.4294 7.59833 18.2419 7.51706 18.045 7.51312ZM18.03 8.95312H17.7544C17.6672 8.95118 17.582 8.9797 17.5136 9.03378C17.4451 9.08785 17.3977 9.16409 17.3794 9.24938C17.303 9.60135 17.1639 9.9367 16.9687 10.2394C16.9223 10.3115 16.902 10.3974 16.9112 10.4827C16.9204 10.568 16.9586 10.6476 17.0194 10.7081L17.2069 10.905L16.7175 11.3906L16.53 11.2031C16.4694 11.1423 16.3899 11.1041 16.3046 11.0949C16.2193 11.0857 16.1334 11.106 16.0612 11.1525C15.7586 11.3477 15.4232 11.4868 15.0712 11.5631C14.986 11.5814 14.9097 11.6289 14.8556 11.6973C14.8016 11.7658 14.773 11.8509 14.775 11.9381V12.2137H14.085V11.9288C14.0869 11.8415 14.0584 11.7564 14.0043 11.6879C13.9503 11.6195 13.874 11.572 13.7887 11.5538C13.4368 11.4774 13.1014 11.3383 12.7987 11.1431C12.7266 11.0967 12.6407 11.0763 12.5554 11.0856C12.4701 11.0948 12.3905 11.133 12.33 11.1938L12.1331 11.3813L11.6475 10.8919L11.835 10.7044C11.8958 10.6438 11.934 10.5643 11.9432 10.479C11.9524 10.3936 11.9321 10.3078 11.8856 10.2356C11.6904 9.93295 11.5513 9.5976 11.475 9.24563C11.4567 9.16034 11.4092 9.0841 11.3408 9.03003C11.2723 8.97595 11.1872 8.94743 11.1 8.94938H10.8244V8.25937H11.1187C11.2059 8.26132 11.2911 8.2328 11.3595 8.17872C11.428 8.12465 11.4754 8.04841 11.4937 7.96313C11.5701 7.61115 11.7092 7.2758 11.9044 6.97312C11.9508 6.90099 11.9711 6.81511 11.9619 6.7298C11.9527 6.64449 11.9145 6.56493 11.8537 6.50437L11.6662 6.3075L12.1556 5.82187L12.3431 6.00937C12.4037 6.07017 12.4832 6.10835 12.5685 6.11757C12.6538 6.12678 12.7397 6.10646 12.8119 6.06C13.1145 5.86481 13.4499 5.72571 13.8019 5.64937C13.8871 5.63108 13.9634 5.58362 14.0175 5.51518C14.0715 5.44673 14.1001 5.36158 14.0981 5.27437V4.99875H14.7881V5.27063C14.7862 5.35783 14.8147 5.44298 14.8688 5.51143C14.9228 5.57987 14.9991 5.62733 15.0844 5.64563C15.4363 5.72196 15.7717 5.86106 16.0744 6.05625C16.1465 6.10271 16.2324 6.12303 16.3177 6.11382C16.403 6.1046 16.4826 6.06642 16.5431 6.00562L16.74 5.81813L17.2256 6.3075L17.0381 6.495C16.9773 6.55555 16.9391 6.63512 16.9299 6.72042C16.9207 6.80573 16.941 6.89162 16.9875 6.96375C17.1827 7.26643 17.3218 7.60178 17.3981 7.95375C17.4164 8.03904 17.4639 8.11528 17.5323 8.16935C17.6008 8.22342 17.6859 8.25194 17.7731 8.25H18.0487L18.03 8.95312Z" fill="#21334F"/>
<path d="M14.4375 6.54736C14.0296 6.54736 13.6308 6.66833 13.2916 6.89496C12.9525 7.12159 12.6881 7.44371 12.532 7.82058C12.3759 8.19745 12.335 8.61215 12.4146 9.01224C12.4942 9.41232 12.6906 9.77983 12.9791 10.0683C13.2675 10.3567 13.635 10.5532 14.0351 10.6327C14.4352 10.7123 14.8499 10.6715 15.2268 10.5154C15.6037 10.3593 15.9258 10.0949 16.1524 9.75573C16.379 9.41655 16.5 9.01779 16.5 8.60986C16.5 8.06285 16.2827 7.53825 15.8959 7.15146C15.5091 6.76466 14.9845 6.54736 14.4375 6.54736ZM14.4375 9.92236C14.1779 9.92236 13.9242 9.84539 13.7083 9.70117C13.4925 9.55695 13.3242 9.35196 13.2249 9.11214C13.1256 8.87231 13.0996 8.60841 13.1502 8.35381C13.2009 8.09921 13.3259 7.86534 13.5094 7.68179C13.693 7.49823 13.9268 7.37323 14.1814 7.32258C14.436 7.27194 14.6999 7.29793 14.9398 7.39727C15.1796 7.49661 15.3846 7.66484 15.5288 7.88068C15.673 8.09652 15.75 8.35028 15.75 8.60986C15.75 8.95796 15.6117 9.2918 15.3656 9.53794C15.1194 9.78408 14.7856 9.92236 14.4375 9.92236Z" fill="#21334F"/>
<path d="M12.4144 24C12.6215 24 12.7894 23.8321 12.7894 23.625C12.7894 23.4179 12.6215 23.25 12.4144 23.25C12.2073 23.25 12.0394 23.4179 12.0394 23.625C12.0394 23.8321 12.2073 24 12.4144 24Z" fill="#21334F"/>
</g>
<defs>
<clipPath id="clip0_4_50">
<rect width="24" height="24" fill="white"/>
</clipPath>
</defs>
</svg>
